<svg xmlns="http://www.w3.org/2000/svg" viewBox="0 0 158.99283 99.74052"><defs><style>.cls-1{fill:#f3f4fa;}.cls-2{fill:#007aff;}.cls-3{fill:#cfd3e3;}.cls-4{fill:#0059ff;}.cls-5{fill:#0093ff;}.cls-6{fill:#fff;}.cls-7{fill:#153646;}</style></defs><title>icn_list_empty_1</title><g id="Layer_2" data-name="Layer 2"><g id="Capa_1" data-name="Capa 1"><polygon class="cls-1" points="62.41 28.358 0 28.358 0 18.154 66.235 18.154 62.41 28.358"/><rect class="cls-2" y="18.15397" width="2.5125" height="10.20356"/><polygon class="cls-1" points="60.985 44.062 0 44.062 0 33.859 60.76 33.859 60.985 44.062"/><rect class="cls-2" y="33.85851" width="2.5125" height="10.20356"/><polygon class="cls-1" points="65.774 59.767 0 59.767 0 49.563 61.838 49.563 65.774 59.767"/><rect class="cls-2" y="49.56305" width="2.5125" height="10.20356"/><polygon class="cls-1" points="86.035 75.471 0 75.471 0 65.268 71.71 65.268 86.035 75.471"/><rect class="cls-2" y="65.26759" width="2.5125" height="10.20356"/><rect class="cls-1" y="80.97213" width="99.20427" height="10.20356"/><rect class="cls-3" x="74.33791" y="83.76603" width="17.8068" height="4.6158" rx="2.3079" ry="2.3079"/><rect class="cls-2" y="80.97213" width="2.5125" height="10.20356"/><rect class="cls-3" x="7.87854" y="22.05522" width="12.07209" height="2.40125"/><rect class="cls-3" x="26.15822" y="22.05522" width="12.07209" height="2.40125"/><rect class="cls-3" x="44.4249" y="23.25584" width="19.89793" height="1.20062"/><rect class="cls-3" x="7.87854" y="37.75984" width="12.07209" height="2.40125"/><rect class="cls-3" x="26.15822" y="37.75984" width="12.07209" height="2.40125"/><rect class="cls-3" x="44.4249" y="37.75984" width="16.44797" height="2.40125"/><rect class="cls-3" x="7.87854" y="53.46401" width="12.07209" height="2.40125"/><rect class="cls-3" x="26.15822" y="53.46401" width="12.07209" height="2.40125"/><rect class="cls-3" x="44.4249" y="53.46401" width="17.41349" height="2.40125"/><rect class="cls-3" x="7.87854" y="69.16863" width="12.07209" height="2.40125"/><rect class="cls-3" x="26.15822" y="69.16863" width="12.07209" height="2.40125"/><rect class="cls-3" x="44.4249" y="69.16863" width="33.9536" height="2.40125"/><rect class="cls-3" x="7.87854" y="84.87325" width="12.07209" height="2.40125"/><rect class="cls-3" x="26.15822" y="84.87325" width="12.07209" height="2.40125"/><rect class="cls-3" x="44.4249" y="85.15818" width="8.70674" height="2.40125"/><rect class="cls-4" x="123.97474" y="63.27199" width="6.32179" height="12.63352" transform="translate(-10.4119 115.26959) rotate(-47.06628)"/><rect class="cls-5" x="135.61461" y="65.16484" width="14.73958" height="38.33776" rx="7.36978" ry="7.36978" transform="translate(-16.15397 131.57454) rotate(-47.06628)"/><path class="cls-2" d="M96.66178,0a39.05667,39.05667,0,1,0,39.05683,39.05673A39.0565,39.0565,0,0,0,96.66178,0Zm0,72.69412A33.63739,33.63739,0,1,1,130.2995,39.05673,33.63727,33.63727,0,0,1,96.66178,72.69412Z"/><circle class="cls-6" cx="96.66189" cy="39.05673" r="33.63745" transform="translate(0.69434 79.78973) rotate(-45)"/><path class="cls-1" d="M63.02445,38.891a34.054,34.054,0,0,0,.368,4.97922H99.10772V29.89917H64.24316A33.81052,33.81052,0,0,0,63.02445,38.891Z"/><path class="cls-1" d="M65.77356,25.52837H99.10772V11.55717H76.94885A33.91527,33.91527,0,0,0,65.77356,25.52837Z"/><path class="cls-1" d="M96.8274,72.6941c.76718,0,1.52589-.03482,2.28032-.08514V69.12344H81.70922A33.64728,33.64728,0,0,0,96.8274,72.6941Z"/><path class="cls-1" d="M73.64779,63.4824H99.10772V49.5113H64.73645A33.80618,33.80618,0,0,0,73.64779,63.4824Z"/><path class="cls-7" d="M92.316,47.19166a15.98124,15.98124,0,0,1,.90351-5.93174,12.16078,12.16078,0,0,1,3.30865-4.3497,16.905,16.905,0,0,0,3.20229-3.48574,5.47,5.47,0,0,0,.79761-2.83536q0-4.49823-4.14624-4.49824a4.19658,4.19658,0,0,0-3.14912,1.212A4.76034,4.76034,0,0,0,91.997,30.64537H84.28985a10.25173,10.25173,0,0,1,3.28228-7.9541q3.22866-2.87269,8.80972-2.87226,5.634,0,8.7438,2.72636a9.69972,9.69972,0,0,1,3.10913,7.701,9.37606,9.37606,0,0,1-1.00987,4.26973,17.60358,17.60358,0,0,1-3.53452,4.456L101.538,41.02a7.29773,7.29773,0,0,0-2.3124,4.54922l-.10635,1.62246Zm-.7708,8.14571a3.86739,3.86739,0,0,1,1.20937-2.92676,4.7326,4.7326,0,0,1,6.1919,0,4.131,4.131,0,0,1,.0268,5.814,4.85,4.85,0,0,1-6.24551,0A3.83735,3.83735,0,0,1,91.54523,55.33737Z"/></g></g></svg>