<svg width="90" height="64" viewBox="0 0 90 64" fill="none" xmlns="http://www.w3.org/2000/svg">
<path d="M69.8823 22.9981C64.7218 22.9981 60.8686 24.363 57.3783 27.4325C57.0297 27.749 56.679 28.0755 56.3225 28.4095C55.9718 28.7418 55.6325 29.0736 55.2995 29.3991C55.2924 29.4062 55.2418 29.4558 55.2354 29.4633L33.7176 52.3404C32.3216 53.7629 30.719 54.9661 28.9641 55.9095L28.7153 56.0348C28.7032 56.0405 28.6918 56.0465 28.6804 56.0526C26.7901 56.9901 24.7104 57.4815 22.6009 57.4893C13.7682 57.4893 6.58231 50.5137 6.58231 41.9395C6.66567 37.6749 8.2782 33.5824 11.1255 30.4093C14.084 27.1845 18.0363 25.0927 21.6991 24.813C21.7295 24.8108 21.7597 24.8066 21.7896 24.8005L21.8195 24.7944C23.7091 24.6681 25.6064 24.7285 27.4841 24.975C28.9587 25.1563 30.4182 25.4457 31.8505 25.8407L32.187 25.907C32.4603 25.942 32.7379 25.9157 32.9997 25.8301C33.2616 25.7445 33.5012 25.6017 33.7012 25.4121C33.7195 25.3954 33.7369 25.3776 33.7532 25.3589L34.2622 24.7833C34.2886 24.7566 34.3157 24.7262 34.3549 24.6816L34.6294 24.3576C34.6451 24.3384 34.6608 24.3184 34.675 24.2977L34.7214 24.2295C34.8809 24.0005 34.9835 23.7367 35.0208 23.46C35.058 23.1833 35.0288 22.9017 34.9357 22.6385C34.8425 22.3754 34.688 22.1383 34.4849 21.9468C34.2819 21.7554 34.0362 21.6152 33.7683 21.5379L33.2828 21.3891C33.2336 21.3712 33.1873 21.3563 33.1167 21.337C31.1702 20.7525 29.1777 20.3343 27.1605 20.087C26.8126 20.0431 26.4583 20.0045 26.0884 19.9696C27.2696 16.4425 29.9679 12.9758 33.6065 10.3459C37.5649 7.39827 42.369 5.81038 47.3024 5.81901C52.8985 5.92677 57.9536 7.76451 61.5373 10.9939C62.3021 11.6833 63.0203 12.4226 63.6874 13.207C63.9575 13.5265 64.3211 13.7528 64.7268 13.854C65.1285 13.9297 65.544 13.8681 65.9066 13.6791C66.0666 13.5947 66.2142 13.4884 66.345 13.3633L66.4534 13.257C66.4904 13.2199 66.5268 13.1831 66.5489 13.1578L66.7863 12.9009C66.8219 12.868 66.8626 12.8267 66.916 12.7699L67.2881 12.3439C67.5093 12.0824 67.6423 11.7577 67.6681 11.4161C67.6949 11.013 67.5794 10.6134 67.3416 10.287C67.3215 10.255 67.2989 10.2247 67.2739 10.1964L67.2204 10.1357C67.0828 9.96731 66.9381 9.79853 66.8127 9.65865C62.0071 3.77645 54.2716 0.167356 46.104 0.00464065C45.9165 0.00214128 45.7319 0 45.5437 0C33.5087 0 21.9443 8.89641 19.4727 19.9428C19.2332 19.967 19.0065 19.9938 18.7719 20.0266L18.7348 20.0359C13.7485 20.7566 9.17729 23.2192 5.82946 26.9883C2.20372 30.9406 0.441467 35.7533 0.441467 41.7022C0.441467 53.8056 10.1481 63.2861 22.5395 63.2861C27.1831 63.2714 31.6927 61.7263 35.3715 58.8895C36.5613 57.8892 37.6949 56.8237 38.767 55.6979L56.6668 36.6208C57.9341 35.1054 59.2981 33.6737 60.7502 32.3348L61.1958 31.9252C63.7425 29.7519 67.0011 28.5968 70.3464 28.6815C78.0228 28.6815 84.5079 35.3722 84.5079 43.2916C84.3709 47.137 82.8603 50.8055 80.2506 53.6304C77.6965 56.3494 74.2388 58.0415 70.5268 58.3889C70.5083 58.3903 70.4633 58.3974 70.4263 58.4038C68.7218 58.5196 67.01 58.4651 65.3163 58.2411C63.9852 58.0781 62.6678 57.8175 61.3748 57.4614L61.091 57.4047C61.0668 57.3997 61.0418 57.3961 61.0176 57.3936C60.6802 57.3587 60.3398 57.4203 60.036 57.5713C59.8707 57.654 59.7194 57.7621 59.5876 57.8918L59.0486 58.4563C59.0048 58.4939 58.9636 58.5345 58.9253 58.5776L58.5453 59.0154C58.3776 59.2388 58.2656 59.499 58.2186 59.7744C58.1715 60.0498 58.1908 60.3324 58.2748 60.5989C58.3588 60.8653 58.5052 61.1078 58.7016 61.3063C58.8981 61.5047 59.139 61.6534 59.4043 61.7399L60.0502 61.9636C60.4984 62.1078 60.955 62.2242 61.4175 62.3123C62.7212 62.6351 64.0428 62.8808 65.3754 63.0481C65.9593 63.1209 66.5652 63.1794 67.1876 63.2276C67.7836 63.2654 68.4071 63.2906 69.0582 63.3032C69.2514 63.3064 69.4422 63.308 69.6307 63.3079C70.0734 63.3079 70.5042 63.3004 70.9231 63.2854C71.2625 63.27 71.6146 63.2497 71.9732 63.2165C72.3147 63.1858 72.6447 63.1523 73.0261 63.0937C77.6635 62.4472 81.9301 60.2009 85.0903 56.7423C88.3938 53.1414 90 48.7601 90 43.3483C90.0216 37.9808 87.9157 32.8239 84.1443 29.0088C80.3728 25.1937 75.2438 23.0321 69.8823 22.9981Z" fill="#2979FF"/>
</svg>
